<svg width="64" height="64" viewBox="0 0 64 64" fill="none" xmlns="http://www.w3.org/2000/svg">
<path fill-rule="evenodd" clip-rule="evenodd" d="M49.6748 17.8086H56.1001C57.1357 17.8086 57.9751 16.9688 57.9751 15.9336V13.9229C57.9751 8.20703 54.5415 3.30811 49.6279 1.16064C49.6582 1.39502 49.6748 1.63281 49.6748 1.875V17.8086Z" fill="#82C6AF"/>
<path fill-rule="evenodd" clip-rule="evenodd" d="M4.2832 42.1748H1.875C0.839355 42.1748 0 43.0146 0 44.0498C0 45.0854 0.839355 45.9248 1.875 45.9248H4.60596C4.39795 45.3379 4.2832 44.707 4.2832 44.0498V42.1748Z" fill="#82C6AF"/>
<path fill-rule="evenodd" clip-rule="evenodd" d="M62.125 42.1748H32.3862C31.3843 43.5923 30.1802 44.8569 28.8149 45.9248H34.1416V62.125C34.1416 63.1606 34.981 64 36.0166 64C37.0522 64 37.8916 63.1606 37.8916 62.125V45.9248H62.125C63.1606 45.9248 64 45.0854 64 44.0498C64 43.0146 63.1606 42.1748 62.125 42.1748Z" fill="#82C6AF"/>
<path fill-rule="evenodd" clip-rule="evenodd" d="M19.9482 7.7666H20.2305C18.3569 10.189 17.0273 13.0513 16.4268 16.1709C20.457 13.6606 25.1187 12.3164 29.9897 12.3164C33.0923 12.3164 35.6167 14.8398 35.6167 17.9414V32C35.6167 34.2656 35.1875 36.4326 34.4072 38.4248H43.5117C45.041 35.9775 45.9253 33.0854 45.9253 29.9858V1.875C45.9253 0.839355 45.0859 0 44.0503 0H36.0146C31.5181 0 27.3647 1.49658 24.0254 4.0166H19.9482C18.7686 4.0166 17.8086 3.05664 17.8086 1.875C17.8086 0.839355 16.9692 0.000976562 15.9336 0.000976562C14.8979 0.000976562 14.0586 0.841309 14.0586 1.87695C14.0586 5.12451 16.7007 7.7666 19.9482 7.7666ZM37.8916 6.1582C38.9268 6.1582 39.7666 6.99854 39.7666 8.0332C39.7666 9.06738 38.9268 9.9082 37.8916 9.9082C36.8564 9.9082 36.0166 9.06738 36.0166 8.0332C36.0166 6.99854 36.8564 6.1582 37.8916 6.1582Z" fill="#82C6AF"/>
<path fill-rule="evenodd" clip-rule="evenodd" d="M16.0664 62.125C16.0664 63.1606 16.9062 64 17.9414 64C24.5127 64 29.8584 58.6543 29.8584 52.0835V49.6748H16.0664V62.125Z" fill="#82C6AF"/>
<path fill-rule="evenodd" clip-rule="evenodd" d="M31.8667 32V17.9414C31.8667 16.9062 31.0249 16.0664 29.9897 16.0664C17.8433 16.0664 8.0332 25.8965 8.0332 38.0229V44.0498C8.0332 45.0854 8.87305 45.9248 9.9082 45.9248H17.9419C25.6445 45.9248 31.8667 39.6895 31.8667 32Z" fill="#82C6AF"/>
</svg>
