<svg width="60" height="64" viewBox="0 0 60 64" fill="none" xmlns="http://www.w3.org/2000/svg">
<path d="M24.9873 22.0918H28.1831L36.1665 13.2061V9.90625C36.167 4.44385 40.6108 0 46.0752 0C47.1104 0 47.9502 0.839355 47.9502 1.875V8.90479L58.1001 15.6714C59.29 16.4639 60 17.79 60 19.2231C60 22.8843 57.0356 25.8418 53.3813 25.8418H47.9502V32.3447C47.9502 36.2412 46.5293 39.9199 43.9336 42.7896V53.6489L44.7202 55.2227C45.519 56.8208 45.9414 58.6104 45.9414 60.397V62.125C45.9414 63.1606 45.1021 64 44.0664 64H37.9082V62.123C37.9082 56.6426 33.4741 52.2168 28.002 52.2168H27.8667V52.0835C27.8667 45.5127 22.5205 40.167 15.9502 40.167C14.9146 40.167 14.0752 41.0063 14.0752 42.042C14.0752 43.0771 14.9146 43.917 15.9502 43.917C20.4531 43.917 24.1167 47.5801 24.1167 52.0835V54.0918C24.1167 55.1274 24.9561 55.9668 25.9917 55.9668H28.002C31.4082 55.9668 34.1582 58.7227 34.1582 62.123V64H1.8916C0.855957 64 0.0166016 63.1606 0.0166016 62.125V47.0625C0.0166016 33.2754 11.2114 22.0918 24.9873 22.0918Z" fill="#82C6AF"/>
</svg>
