<svg width="32" height="32" viewBox="0 0 32 32" fill="none" xmlns="http://www.w3.org/2000/svg">
<path d="M15.9997 0C7.16343 0 0 7.16364 0 15.9997C0 24.8358 7.16343 32 15.9997 32C24.836 32 32 24.8358 32 15.9997C32 7.16364 24.836 0 15.9997 0ZM22.9169 19.0429H16.1336C16.1107 19.0429 16.0893 19.0373 16.0666 19.0365C16.0439 19.0375 16.0227 19.0429 15.9996 19.0429C15.3885 19.0429 14.893 18.5474 14.893 17.9363V6.64C14.893 6.0289 15.3885 5.53343 15.9996 5.53343C16.6107 5.53343 17.1062 6.0289 17.1062 6.64V16.8297H22.9164C23.5275 16.8297 24.023 17.3252 24.023 17.9363C24.023 18.5474 23.528 19.0429 22.9169 19.0429Z" fill="#82C6AF"/>
</svg>
