<svg width="32" height="32" viewBox="0 0 32 32" fill="none" xmlns="http://www.w3.org/2000/svg">
<path d="M15.9996 0C7.16338 0 0 7.16359 0 15.9998C0 24.8359 7.16338 32 15.9996 32C24.8359 32 31.9998 24.8359 31.9998 15.9998C31.9998 7.16359 24.8359 0 15.9996 0ZM15.9664 7.32573C15.9778 7.32573 15.9888 7.32519 15.9999 7.32466C16.011 7.32519 16.022 7.32573 16.0334 7.32573C18.7294 7.36829 20.9224 9.59647 20.9224 12.293C20.9224 15.5899 17.3999 18.9283 15.9999 20.1245C15.9064 20.0445 15.8027 19.9543 15.6918 19.8556C15.6899 19.8539 15.6882 19.8525 15.6866 19.8509C14.1373 18.4742 11.0775 15.366 11.0775 12.293C11.0774 9.59647 13.2707 7.36839 15.9664 7.32573ZM16.0694 24.7736C13.1186 24.7736 10.1313 23.9271 10.1313 22.3098C10.1313 21.1747 11.6022 20.4199 13.4987 20.0703C13.8655 20.439 14.2127 20.7642 14.5174 21.0355C12.4516 21.2662 11.238 21.9202 11.238 22.3094C11.238 22.7877 13.0721 23.6667 16.0694 23.6667C19.0666 23.6667 20.9011 22.7877 20.9011 22.3094C20.9011 21.9122 19.6362 21.2418 17.4955 21.0239C17.8028 20.7494 18.1528 20.4213 18.5224 20.0487C20.4758 20.3888 22.0077 21.1511 22.0077 22.3098C22.0077 23.9271 19.0203 24.7736 16.0694 24.7736Z" fill="#82C6AF"/>
</svg>
