<svg width="26" height="26" viewBox="0 0 26 26" fill="none" xmlns="http://www.w3.org/2000/svg">
<path d="M1.64235 1.35765C2.39216 0.607838 3.60784 0.607838 4.35765 1.35765L24.2698 21.2698C25.0196 22.0196 25.0196 23.2353 24.2698 23.9851C23.52 24.7349 22.3043 24.7349 21.5545 23.9851L1.64235 4.07294C0.892548 3.32313 0.892548 2.10745 1.64235 1.35765Z" fill="#006D4D"/>
<path d="M1.35765 24.3576C0.607838 23.6078 0.607838 22.3922 1.35765 21.6424L21.2698 1.73023C22.0196 0.980422 23.2353 0.980422 23.9851 1.73023C24.7349 2.48004 24.7349 3.69571 23.9851 4.44552L4.07294 24.3576C3.32313 25.1075 2.10745 25.1075 1.35765 24.3576Z" fill="#006D4D"/>
</svg>
