<svg width="64" height="64" viewBox="0 0 64 64" fill="none" xmlns="http://www.w3.org/2000/svg">
<path d="M15.0107 30.2666L20.168 28.0234C24.5928 26.0986 28.0776 22.7129 30.1606 18.5762C32.0249 21.5693 35.3442 23.5664 39.1226 23.5664C44.9409 23.5664 49.6748 18.833 49.6748 13.0151V0.879395C52.2163 2.19385 53.9585 4.8457 53.9585 7.8999C53.9585 10.1885 55.8203 12.0498 58.1084 12.0498H62.125C63.1606 12.0498 64 12.8896 64 13.9248V16.9375C64 21.8472 60.0059 25.8418 55.0957 25.8418H52.0835C50.9023 25.8418 49.9419 26.8022 49.9419 27.9834V32.3442C49.9419 36.2412 48.5215 39.9199 45.9253 42.7891V53.6489L46.7124 55.2227C47.5112 56.8213 47.9336 58.6108 47.9336 60.397V62.125C47.9336 63.1606 47.0942 64 46.0586 64H39.8999V62.123C39.8999 56.6426 35.4658 52.2168 29.9937 52.2168H29.8584V52.0835C29.8584 45.5127 24.5122 40.167 17.9414 40.167C16.9062 40.167 16.0664 41.0063 16.0664 42.042C16.0664 43.0771 16.9062 43.917 17.9414 43.917C22.4448 43.917 26.1084 47.5801 26.1084 52.0835V54.0918C26.1084 55.1274 26.9478 55.9668 27.9834 55.9668H29.9937C33.3999 55.9668 36.1499 58.7227 36.1499 62.123V64H1.875C0.839355 64 0 63.1606 0 62.125V53.1646C0 43.2212 5.89209 34.2329 15.0107 30.2666Z" fill="#FFA953"/>
</svg>
