<svg width="32" height="32" viewBox="0 0 32 32" fill="none" xmlns="http://www.w3.org/2000/svg">
<path d="M0 1.92C0 0.859613 0.859613 0 1.92 0H14.08C15.1404 0 16 0.859613 16 1.92C16 2.98039 15.1404 3.84 14.08 3.84H1.92C0.859613 3.84 0 2.98039 0 1.92Z" fill="#006D4D"/>
<path d="M16 30.08C16 29.0196 16.8596 28.16 17.92 28.16H30.08C31.1404 28.16 32 29.0196 32 30.08C32 31.1404 31.1404 32 30.08 32H17.92C16.8596 32 16 31.1404 16 30.08Z" fill="#006D4D"/>
<path d="M0 16C0 14.9396 0.859613 14.08 1.92 14.08H30.08C31.1404 14.08 32 14.9396 32 16C32 17.0604 31.1404 17.92 30.08 17.92H1.92C0.859613 17.92 0 17.0604 0 16Z" fill="#006D4D"/>
</svg>
