<svg width="64" height="66" viewBox="0 0 64 66" fill="none" xmlns="http://www.w3.org/2000/svg">
<g clip-path="url(#clip0)">
<path d="M7.77673 48.6779C7.70056 48.755 7.62439 48.832 7.5492 48.908C5.15418 51.3326 5.14929 55.2515 7.54822 57.6791C7.56287 57.6939 7.578 57.7092 7.59412 57.723C9.91443 60.0243 13.5956 60.0899 15.993 57.9027C12.6219 55.4904 9.80457 52.3362 7.77673 48.6779Z" fill="#82C6AF"/>
<path d="M7.77785 21.3635C9.80519 17.7043 12.6226 14.5501 15.9942 12.1377C13.5825 9.94262 9.87502 10.0137 7.55031 12.3614C7.53517 12.3752 7.52004 12.3915 7.50539 12.4068C5.15529 14.8304 5.16164 18.7211 7.54885 21.134C7.62502 21.211 7.70168 21.288 7.77785 21.3635Z" fill="#82C6AF"/>
<path d="M56.166 48.6789C54.1372 52.3376 51.3208 55.4904 47.9497 57.9027C50.3472 60.0899 54.0283 60.0243 56.3486 57.723C56.3633 57.7092 56.3784 57.6939 56.3936 57.6791C58.7925 55.2515 58.7886 51.3326 56.3921 48.908C56.3174 48.832 56.2422 48.7564 56.166 48.6789Z" fill="#82C6AF"/>
<path d="M56.1645 21.3635C56.2412 21.2865 56.3159 21.211 56.3921 21.134C58.7798 18.7211 58.7871 14.8304 56.436 12.4068C56.4209 12.3915 56.4072 12.3752 56.3921 12.3614C54.0659 10.0137 50.3584 9.94262 47.9487 12.1377C51.3198 14.5501 54.1372 17.7043 56.1645 21.3635Z" fill="#82C6AF"/>
<path d="M39.8574 8.15573C39.6172 3.95651 36.1787 0.640869 31.9712 0.640869C27.7646 0.640869 24.3262 3.95552 24.085 8.15573C26.585 7.40395 29.2324 7.00066 31.9712 7.00066C34.71 7.00066 37.3574 7.40395 39.8574 8.15573Z" fill="#82C6AF"/>
<path d="M36.6865 22.9742L42.2925 13.1566C39.1646 11.6417 35.6641 10.7922 31.9712 10.7922C28.3477 10.7922 24.9102 11.6111 21.8281 13.0727L27.4839 22.9742H36.6865Z" fill="#82C6AF"/>
<path d="M27.2554 26.7652L22.541 35.021L27.2554 43.2768H36.6865L41.4009 35.021L36.6865 26.7652H27.2554Z" fill="#82C6AF"/>
<path d="M8.06396 33.3244H19.1797L24.1221 24.6693L18.5674 14.945C12.6338 19.0065 8.58936 25.6837 8.06396 33.3244Z" fill="#82C6AF"/>
<path d="M44.5347 32.9256H55.8472C55.2163 25.5213 51.2783 19.0583 45.5361 15.0585L39.9341 24.8697L44.5347 32.9256Z" fill="#82C6AF"/>
<path d="M55.8779 36.7166H44.7627L39.8203 45.3717L45.375 55.0965C51.3086 51.035 55.353 44.3578 55.8779 36.7166Z" fill="#82C6AF"/>
<path d="M27.2554 47.0678L21.6489 56.8849C24.7769 58.4003 28.2773 59.2498 31.9712 59.2498C35.5947 59.2498 39.0322 58.4309 42.1143 56.9693L36.4585 47.0678H27.2554Z" fill="#82C6AF"/>
<path d="M19.4072 37.1154H8.09473C8.7251 44.5202 12.6636 50.9832 18.4053 54.9835L24.0078 45.1723L19.4072 37.1154Z" fill="#82C6AF"/>
<path d="M30.0962 62.9757V63.4451C30.0962 64.4921 30.9355 65.3406 31.9712 65.3406C33.0063 65.3406 33.8462 64.4921 33.8462 63.4451V62.9752C33.2246 63.0171 32.5996 63.0408 31.9712 63.0408C31.3423 63.0408 30.7173 63.0171 30.0962 62.9757Z" fill="#82C6AF"/>
</g>
<defs>
<clipPath id="clip0">
<rect y="0.640869" width="64" height="64.6997" fill="white"/>
</clipPath>
</defs>
</svg>
